Patient4_TMGait_0pt3_01_right_01_EMG.mot
version=1
nRows=33
nColumns=33
inDegrees=no
endheader
time	1LAddLong	2LGlutMax	3LGlutMed	4LIliopsoas	5LSemiMemb	6LBicFemLong	7LRecFem	8LVastMed	9LVastLat	10LGasMed	11LTibAnt	12lTibPost	13LPeroneusLong	14LSol	15LExtDigLong	16LFlexDigLong	17RAddLong	18RGlutMax	19RGlutMed	20RIliopsoas	21RSemiMemb	22RBicFemLong	23RRecFem	24RVastMed	25RVastLat	26RGasMed	27RTibAnt	28RTibPost	29RPeroneusLong	30RSol	31RExtDigLong	32RFlexDigLong
1.61	-0.023346	0.023499	0.019531	0.003204	0.002441	-0.011139	0.085297	0.004883	0.090332	0.033112	0.07431	0.023346	0.006256	0.028534	0.066376	0.035706	0.004425	-0.013123	-0.10727	-0.044098	0.08728	-0.004272	-0.29541	-0.040283	0.003815	-0.009613	-0.3923	0.002747	0.23727	0.042725	0.00061	-0.005035
1.611	-0.023651	0.045776	-0.024567	0.015717	-0.015106	-0.022583	-0.001373	0.00824	0.1564	0.041809	-0.002747	0.016327	0.004578	0.036469	0.053864	0.026093	0.001221	0.055542	-0.11749	-0.069885	0.075531	0.00473	-0.2919	0.037079	0.0354	-0.013428	-0.095062	-0.000305	0.30548	0.06897	-0.006409	-0.006409
1.612	-0.013733	0.052185	-0.037231	0.013733	0.01297	-0.088196	-0.052185	0.007172	0.1915	0.035858	-0.044861	0.0177	0.037842	0.056763	0.024414	0.037994	0.000763	0.032501	-0.16144	0.088959	0.090637	-0.014648	-0.20615	0.026245	0.025482	-0.009766	-0.034485	-0.000153	0.18478	0.029755	-0.001678	-0.010376
1.613	-0.005341	0.034637	0.007935	0.001831	0.006561	0.062561	-0.041351	0.001678	0.23254	0.042572	-0.03891	0.020294	0.035095	0.029297	0.000153	0.034027	-0.008392	0.00061	-0.077667	0.14603	0.078735	-0.00885	-0.22201	0.007935	-0.006104	-0.012512	-0.037537	-0.001984	0.061951	0.011902	0	-0.013275
1.614	0.00473	0.046692	-0.003815	-0.003967	0.012512	0.12497	-0.06073	-0.017395	0.27863	0.037231	0.003357	0.015869	0.031281	0.032196	-0.001373	0.016479	-0.002899	0.029602	0.007629	0.18478	0.09613	-0.016479	-0.21271	-0.022888	0	-0.015106	-0.044556	0.000153	0.01297	0.038605	0.000458	-0.018921
1.615	0.007172	0.042267	0.045471	0.003967	0.036926	0.048065	-0.074921	-0.020905	0.16708	0.029602	-0.032806	0.006104	0.003815	0.046844	-0.059509	0.021667	0.003662	0.0177	0.051117	0.121	0.095367	-0.011902	-0.25314	-0.037842	0.025635	-0.002899	-0.023041	0	-0.00412	0.035858	-0.006409	-0.023499
1.616	0.004883	0.065308	0.035553	-0.011292	0.066071	0.12207	-0.054626	-0.006561	-0.058594	0.025024	-0.16388	0.011292	0.001221	0.11032	-0.055237	0.024719	0.001526	0.010376	0.22156	0.010986	0.10971	-0.028381	-0.2417	-0.00351	0.015411	-0.007782	-0.027161	0.001068	-0.018616	0.002899	-0.004578	-0.017395
1.617	0.001984	0.071106	0.014191	0.00946	0.014343	0.20752	-0.11978	-0.001831	-0.19852	0.002289	-0.20172	0.011749	0.061798	0.066986	0.030518	0.019379	0.00061	0.011292	-0.10117	0.021973	0.10941	-0.023956	-0.20462	-0.026093	0.004425	-0.00061	-0.039978	0.001221	0.006561	-0.019531	-0.007172	-0.00824
1.618	0.011902	0.050049	-0.029755	0.000763	-0.009766	0.16464	-0.091858	-0.005035	-0.13458	-0.00885	-0.11978	0.019531	0.085602	0.13992	0.028839	0.02121	-0.002289	0.015564	0.028076	0.031128	0.10864	-0.019073	-0.20477	-0.001221	0.006866	-0.012817	-0.037079	0.001984	0.046997	-0.010834	-0.003815	-0.009766
1.619	0.009918	0.058594	0.011749	0.007324	-0.010223	0.11169	-0.03479	-0.001221	0.014801	-0.001831	-0.17151	0.012054	0.10803	0.12146	-0.046387	0.014496	-0.002594	0.01236	0.10956	-0.027771	0.11185	-0.008087	-0.18875	-0.053253	0.01236	-0.011139	0.06958	-0.00351	0.090637	0.013275	-0.00351	-0.006104
1.62	0.007629	0.001984	0.029144	0.025787	-0.02594	0.061951	-0.007629	0.004272	-0.013885	0.008087	-0.054779	0.008392	0.077667	0.016785	0.2179	-0.00885	0.010223	0.028229	0.098724	-0.040741	0.11246	-0.010223	-0.20706	-0.038605	0.008545	-0.012512	0.28793	-0.004272	0.055542	-0.023499	0.01236	-0.008392
1.621	0.016022	-0.003204	-0.016022	0.010834	0.027161	-0.015564	0.015717	0.018158	-0.042725	0.009003	0.19424	-0.006104	0.04837	-0.005798	0.25452	-0.005646	0.00412	0.023346	0.06546	-0.00946	0.11215	0.003662	-0.18707	-0.067749	0.015869	-0.010071	0.44662	-0.009308	-0.048981	-0.27954	-0.002594	-0.009918
1.622	0.02121	0.002594	-0.031433	-0.003357	0.037384	-0.091095	0.010376	0.009155	-0.067596	0.039215	0.298	0.002136	-0.010681	0.034943	-0.028076	-0.010376	-0.001068	0.012512	0.06485	0.035553	0.12116	0.018921	-0.22873	-0.050507	0.019073	-0.005493	0.32867	-0.00061	-0.3038	-0.5304	-0.003662	-0.007172
1.623	0.022736	0.009308	-0.040283	0.011444	0.018616	0.010681	0.023346	0.004883	-0.10941	0.054932	0.30991	-0.000153	-0.065765	0.025177	0.56427	-0.009155	0.001221	0.067902	0.1239	0.018616	0.12085	0	-0.19577	-0.024261	0.027466	0	-0.011292	-0.001678	-0.32486	-0.56656	-0.000458	-0.007019
1.624	0.014038	-0.004578	-0.04425	0.015717	0.020294	-0.002136	0.035553	0.010986	-0.14923	0.042114	0.46982	0.00473	-0.087585	0.040894	0.13763	-0.000763	-0.009003	0.063934	0.16663	-0.022736	0.11673	-0.001526	-0.19043	-0.024109	0.005951	0.004883	-0.23224	0.009155	-0.12711	-0.16571	-0.00061	-0.006561
1.625	0.008087	0.019684	-0.094757	0.010529	0.007172	-0.12909	0.016479	0.008087	-0.17334	0.005188	0.36774	0.001526	-0.00061	0.13962	0.25559	-0.006256	-0.002289	0.03006	-0.048523	-0.048523	0.11032	-0.010223	-0.09903	-0.058289	-0.04425	-0.006409	-0.51804	0.007172	0.79895	0.46799	-0.004425	-0.011292
1.626	0.024872	0.009155	-0.05188	-0.010681	-0.001984	-0.233	0.000916	0.020599	-0.12665	-0.01297	0.001831	-0.00412	0.030518	0.29999	0.28671	0.006104	0.005341	0.011902	-0.034637	-0.033264	0.10651	-0.010986	-0.11292	-0.090027	-0.087891	-0.0177	-0.47211	0.000153	1.0692	0.31921	-0.000153	-0.011902
1.627	0.034943	0.035706	-0.042419	0.005646	-0.023193	-0.11993	0.003357	0.030975	-0.046387	0.002594	-0.11993	0.006256	0.020599	0.28198	0.25345	-0.02243	0.003357	0.074463	0.070038	-0.009003	0.10529	-0.007935	-0.095367	-0.1001	-0.12741	-0.007477	-0.13199	0.002441	0.27527	0.11597	-0.003967	-0.009918
1.628	0.031891	0.026093	0.014191	-0.006409	-0.04364	0.025482	-0.086517	0.041046	0.014191	0.011902	-0.17288	0.002136	-0.004578	0.20508	0.03006	-0.028381	0.002441	0.04776	-0.023956	0.01297	0.10513	-0.014954	-0.004883	-0.015411	-0.14877	-0.011292	-0.06546	-0.002136	0.47058	0.065002	-0.002899	-0.013428
1.629	0.025635	0.046692	0.061798	0.014496	-0.075378	0.062561	-0.068207	0.033264	0.030518	-0.041809	-0.14099	-0.003662	0.079956	0.18784	-0.3122	-0.010223	-0.006714	0.042419	-0.030823	0.050354	0.1149	0.003662	-0.12787	0.017853	-0.040131	-0.006866	-0.044861	-0.000153	-0.068054	0.033569	-0.008392	-0.02594
1.63	0.004578	0.043182	0.016479	0.02121	-0.059509	0.063782	-0.058441	0.024719	0.021667	-0.041046	-0.22446	-0.009003	0.11841	0.17548	-0.49744	-0.012512	0.006561	0.058594	0.18616	0.058441	0.10147	-0.031433	-0.16632	-0.036163	0.11398	-0.007324	0.045319	0.000153	-0.10803	0.069122	-0.002441	-0.018158
1.631	0.000763	0.03891	0.004425	-0.001831	-0.038757	0.058441	-0.072479	0.006409	0.033722	-0.034485	-0.24155	-0.008087	0.23346	0.10346	-0.4924	-0.027313	0.002747	0.062408	0.13962	0.047455	0.10086	-0.041504	-0.080261	-0.052338	0.17593	-0.007172	0.045013	-0.000305	-0.35111	0.031281	-0.003052	-0.009003
1.632	-0.023651	0.007935	0.054321	0.006866	-0.068359	0.096588	-0.053864	-0.005341	0.05249	-0.004578	-0.16113	-0.007782	0.20096	-0.023804	-0.64606	-0.019684	0.006104	0.008392	0.000763	0.056	0.097961	-0.020142	-0.03952	-0.10193	0.18249	-0.006561	0.12039	0.000153	-0.57465	-0.012817	-0.003052	-0.020142
1.633	-0.032501	0.017548	0.040283	0.001831	-0.059662	0.12909	-0.035248	-0.00351	0.045013	-0.019379	-0.11719	0.000763	0.18967	-0.03067	-0.65247	-0.019379	0.001373	0.033264	0.001373	0.041199	0.12177	-0.014648	-0.15335	-0.062561	0.20538	-0.007019	0.19623	-0.006409	0.25711	0.074768	-0.002289	-0.009308
1.634	-0.012207	0.031738	0.030518	0.013275	-0.026703	0.021973	-0.052032	-0.003357	0.038757	-0.040588	-0.10086	-0.012054	0.13657	-0.081024	-0.42191	-0.020905	-0.008392	0.016174	0.36118	0.002289	0.11368	0.014343	-0.14984	-0.038757	0.1741	-0.011292	0.26215	-0.00351	0.11459	0.052643	-0.001831	-0.009918
1.635	0.018311	0.000305	0.011902	0.014191	0.088806	-0.053253	-0.062561	-0.002899	0.021057	-0.011292	-0.063019	0.014648	0.006561	-0.092468	-0.17929	-0.011902	0.006104	0.007172	0.32867	-0.013428	0.11368	-0.003967	-0.082245	0.051575	0.065765	-0.011444	0.16266	0.004272	0.052185	-0.016937	0.001373	-0.010071
1.636	0.021057	0.005798	-0.004272	0.010529	0.08255	-0.030975	-0.053711	0.005646	-0.005188	0.008392	-0.069122	-0.010986	-0.15259	-0.1651	0.026703	-0.034637	0.008087	-0.016327	0.24963	0.000763	0.10605	-0.013733	-0.00412	0.04303	-0.021973	-0.00885	-0.13916	-0.001831	0.13687	0.029755	0.00061	-0.005493
1.637	0.009918	0.02121	-0.02182	0.005646	0.010681	0.059967	-0.042267	0.007324	-0.024109	0.002594	-0.055084	-0.007629	-0.070953	-0.24246	0.13519	-0.024719	-0.00061	0.016327	0.10956	-0.039978	0.10391	0.004272	0.046692	0.02243	-0.069275	-0.010834	-0.33188	-0.001373	-0.088043	0.039215	-0.003052	0.000305
1.638	-0.004883	0.053711	-0.011444	-0.018311	-0.027924	0.090485	-0.002899	0.015717	-0.009766	0.009003	0.000153	0.003357	0.04425	-0.27985	0.13443	-0.030365	0.005341	0.00824	-0.001068	-0.073395	0.094604	-0.025177	0.075684	0.018463	-0.1976	-0.003052	-0.38803	0.002136	-0.44388	-0.049286	-0.00351	-0.006714
1.639	-0.009766	0.022125	-0.015106	-0.008545	-0.1059	0.09079	0.013733	0.03067	-0.012512	0.024872	0.015717	0.009613	0.004883	-0.23605	0.16068	-0.018768	0.001984	-0.035706	0.27054	-0.068817	0.11124	-0.006256	-0.014648	0.042267	-0.22247	-0.009003	-0.18524	-0.000458	-0.069733	-0.046082	-0.002136	-0.006409
1.64	-0.00351	-0.001221	-0.03006	0.001984	-0.159	0.059967	-0.028839	0.032959	0.004578	0.011902	0.021057	-0.002289	0.012665	-0.12177	0.19028	-0.009155	-0.000153	-0.03006	0.27985	0.007324	0.093689	-0.006409	0.035095	0.037384	-0.070496	-0.00885	0.16693	0.000458	0.005188	0.005188	-0.002747	-0.013885
1.641	0.001984	0.021362	-0.006714	-0.003967	-0.037537	0.059204	-0.071259	0.014954	-0.000305	-0.010223	0.042725	-0.000305	0.019684	-0.067749	0.17151	-0.012817	0.017395	-0.026703	0.23514	0.099487	0.074768	-0.068817	0.13641	-0.047607	0.013275	-0.002136	0.22247	0.002747	0.23483	-0.09552	0.006409	-0.00824
1.642	0.011749	0.022736	0.1178	0.002747	0.030212	0.13351	-0.1416	0.011139	0.049133	-0.015564	0.053101	0.007477	-0.02533	-0.048676	0.076294	-0.026245	0.009766	-0.060425	0.26672	0.093994	0.071869	-0.05188	-0.17746	-0.12543	0.029297	0.001831	0.037537	-0.001984	-0.13901	-0.12238	-0.004272	-0.007782
